<svg id="Capa_1" enable-background="new 0 0 512 512" height="40" viewBox="0 0 512 512" width="40" xmlns="http://www.w3.org/2000/svg"><g><g><path d="m405.882 321.13c20.914 9.144 42.952 15.716 65.699 19.531 7.625 1.279 15.218 3.475 22.637 6.645 14.597 6.236 21.79 23.016 15.493 37.586-7.779 17.999-29.157 28.611-53.441 34.815-31.039 7.93-62.766 4.995-90.533-6.765z" fill="#ACADFF"/></g><g><path d="m510.09 363.717c-2.742-7.117-8.309-13.181-15.871-16.411-7.419-3.169-15.013-5.365-22.637-6.645-22.747-3.816-44.785-10.387-65.699-19.531l-40.144 91.812c18.279 7.741 38.274 11.657 58.659 11.168 5.73-11.538 10.666-23.445 14.776-35.654 5.093-15.13 19.416-25.242 35.368-24.641 14.223.536 26.357.319 35.548-.098z" fill="#5658DD"/></g><g><path d="m271.935 248.453c-19.357-12.096-37.226-26.573-53.22-43.191-5.361-5.57-11.462-10.597-18.267-14.93-13.389-8.525-31.3-4.986-39.769 8.439-10.462 16.584-7.147 40.22 1.447 63.764 10.984 30.094 31.322 54.621 56.708 70.896z" fill="#ACADFF"/></g><g><path d="m218.715 205.262c-5.361-5.57-11.462-10.597-18.267-14.93-6.921-4.407-15.048-5.582-22.457-3.843 4.414 8.183 12.31 21.749 23.884 37.742 10.222 14.124 8.986 33.695-3.287 46.079-.081.082-.163.164-.245.246l-21.405 21.405c11.052 16.811 25.397 30.892 41.895 41.47l53.102-84.978c-19.357-12.096-37.226-26.573-53.22-43.191z" fill="#5658DD"/></g><g><path d="m228.501 137.044c44.752 44.847 43.78 117.851-1.02 162.651l-23.068 23.068c.001.002 43.48 93.705 176.316 95.546 53.471-93.676 40.249-215.065-39.699-295.014-73.453-73.453-184.38-86.568-271.234-39.377l19.028 35.699c43.979-26.316 101.82-20.511 139.677 17.427z" fill="#E9E9FF"/></g><g><path d="m216.524 109.703c0-21.307 17.273-38.58 38.58-38.58 2.437 0 4.818.236 7.13.669-62.268-24.216-132.991-20.175-192.438 12.126l19.028 35.699c42.509-25.435 97.964-20.856 135.81 13.735-5.078-6.533-8.11-14.735-8.11-23.649z" fill="#e4e4e4"/></g><g><path d="m15.863 14.273c-12.327 4.296-18.836 17.772-14.54 30.098 2.293 6.579 5.334 12.684 8.993 18.253 21.088 32.09 33.844 68.688 37.273 106.933.595 6.637 2.008 13.309 4.301 19.888 4.297 12.327 17.772 18.836 30.099 14.539 15.365-5.356 25.5-22.382 32.182-42.086 18.501-54.56-4.804-115.051-56.167-141.146-14.536-7.385-29.333-10.944-42.141-6.479z" fill="#ACADFF"/></g><g><path d="m412.078 276.972c-4.512-56.033-28.184-110.813-71.048-153.677-15.517-15.517-32.71-28.33-50.991-38.461-12.93 62.716 50.343 71.986 39.462 122.362-13.104 60.665 47.943 81.807 82.577 69.776z" fill="#ACADFF"/></g><g><path d="m286.677 320.136c-28.187 8.824-64.384 16.013-82.264 2.626l-5.445 5.445c-39.229 39.229-39.229 102.833 0 142.062 39.229 39.229 102.833 39.229 142.062 0 15.866-15.866 29.088-33.371 39.699-51.962-31.124-10.918-44.702-44.867-50.625-72.696-4.179-19.634-24.269-31.472-43.427-25.475z" fill="#ACADFF"/></g><g><path d="m198.967 328.208c-39.229 39.229-39.229 102.832 0 142.062 28.728 28.728 70.518 36.39 106.244 23.043-107.271-36.786-100.799-170.55-100.799-170.55z" fill="#5658DD"/></g><g><g><g><path d="m214.247 408.301c-1.308 0-2.632-.342-3.837-1.061-3.557-2.123-4.72-6.728-2.597-10.284l5.072-8.499c2.123-3.558 6.725-4.72 10.284-2.597 3.557 2.123 4.72 6.728 2.597 10.284l-5.072 8.499c-1.404 2.353-3.893 3.658-6.447 3.658z" fill="#595959"/></g><g><path d="m302.708 461.096c-1.309 0-2.633-.342-3.837-1.062-3.557-2.123-4.72-6.727-2.596-10.283l5.073-8.499c2.121-3.558 6.727-4.723 10.283-2.596 3.557 2.123 4.719 6.727 2.596 10.283l-5.073 8.499c-1.403 2.353-3.892 3.658-6.446 3.658z" fill="#595959"/></g></g><g><g><path d="m64.4 69.486c-1.271 0-2.561-.323-3.741-1.005l-21.015-12.124c-3.588-2.069-4.818-6.656-2.748-10.244 2.069-3.588 6.654-4.821 10.244-2.748l21.016 12.124c3.588 2.069 4.818 6.656 2.748 10.244-1.389 2.408-3.911 3.753-6.504 3.753z" fill="#5658DD"/></g><g><path d="m76.587 164.104c-1.081 0-2.179-.234-3.22-.73-3.739-1.781-5.328-6.256-3.547-9.996l10.431-21.904c1.781-3.74 6.255-5.329 9.996-3.547 3.739 1.781 5.328 6.256 3.547 9.996l-10.431 21.904c-1.285 2.698-3.973 4.277-6.776 4.277z" fill="#5658DD"/></g><g><path d="m63.908 109.515c-3.197 0-6.16-2.061-7.159-5.274-1.23-3.955.979-8.159 4.934-9.389l8.854-2.754c3.955-1.235 8.159.979 9.389 4.934s-.979 8.159-4.934 9.389l-8.854 2.754c-.742.23-1.492.34-2.23.34z" fill="#5658DD"/></g></g></g></g></svg>